<svg xmlns="http://www.w3.org/2000/svg" viewBox="0 0 512 512" fill="none"><path d="M180 210 C180 150 230 120 256 165 C282 120 332 150 332 210 C332 285 256 345 256 345 C256 345 180 285 180 210 Z" stroke="#fff" fill="none" stroke-linecap="round" stroke-linejoin="round" stroke-width="10"/><path d="M130 390 C165 345 210 330 245 355" stroke="#fff" fill="none" stroke-linecap="round" stroke-linejoin="round" stroke-width="8"/><path d="M382 390 C347 345 302 330 267 355" stroke="#fff" fill="none" stroke-linecap="round" stroke-linejoin="round" stroke-width="8"/><path d="M400 122.56 L402.604 127.396 L407.44 130 L402.604 132.604 L400 137.44 L397.396 132.604 L392.56 130 L397.396 127.396 Z" stroke="#fff" fill="#fff" stroke-width="1.5" stroke-linejoin="round"/><circle cx="110" cy="160" r="3.5" fill="#fff" stroke="none"/></svg>
